<?xml version="1.0" standalone="no"?>
<!DOCTYPE svg PUBLIC "-//W3C//DTD SVG 20010904//EN"
 "http://www.w3.org/TR/2001/REC-SVG-20010904/DTD/svg10.dtd">
<svg version="1.0" xmlns="http://www.w3.org/2000/svg"
 width="700.000000pt" height="700.000000pt" viewBox="0 0 700.000000 700.000000"
 preserveAspectRatio="xMidYMid meet">
<metadata>
Created by potrace 1.11, written by Peter Selinger 2001-2013
</metadata>
<g transform="translate(0.000000,700.000000) scale(0.100000,-0.100000)"
fill="#000000" stroke="none">
<path d="M3310 6717 l0 -283 200 0 200 0 0 283 0 283 -200 0 -200 0 0 -283z"/>
<path d="M2098 6716 c-92 -50 -169 -94 -173 -97 -6 -6 11 -40 100 -204 18 -33
56 -105 85 -160 29 -55 66 -123 82 -152 l29 -52 81 51 c45 28 123 70 175 95
l93 45 -56 106 c-31 59 -71 134 -89 167 -18 33 -51 94 -72 135 -41 77 -84 154
-87 156 0 0 -76 -40 -168 -90z"/>
<path d="M4624 6606 c-59 -110 -123 -230 -142 -266 -19 -36 -39 -69 -43 -74
-16 -18 -9 -24 74 -64 45 -21 123 -64 174 -95 l92 -56 71 132 c39 73 75 139
80 147 5 8 25 47 45 85 21 39 53 98 72 133 20 35 32 67 27 71 -5 5 -84 49
-176 98 l-166 91 -108 -202z"/>
<path d="M3305 5990 c-27 -4 -75 -10 -105 -14 -135 -17 -363 -88 -516 -161
-386 -186 -657 -471 -817 -860 -27 -65 -81 -262 -92 -335 -4 -25 -10 -54 -12
-65 -3 -11 -6 -103 -8 -205 -2 -143 2 -210 16 -293 27 -161 86 -375 129 -472
5 -11 20 -47 34 -80 30 -75 110 -238 161 -330 21 -38 109 -196 195 -350 154
-275 237 -435 281 -545 69 -175 109 -349 118 -517 1 -10 66 -13 291 -13 l289
0 -4 82 c-16 281 -88 538 -240 854 -67 140 -112 224 -352 649 -169 298 -287
576 -309 725 -3 19 -7 41 -10 49 -8 24 -17 142 -18 221 0 368 162 685 448 874
96 64 163 98 254 131 466 168 1013 63 1330 -255 146 -147 236 -323 279 -540
19 -99 21 -315 4 -401 -6 -30 -12 -66 -15 -80 -2 -14 -14 -60 -25 -101 -53
-190 -131 -352 -401 -833 -265 -474 -363 -693 -423 -950 -35 -146 -43 -205
-52 -347 l-5 -78 290 0 c160 0 290 3 291 8 0 4 3 34 5 67 16 241 120 519 336
897 352 620 445 812 523 1091 56 197 74 333 70 537 -4 180 -6 201 -31 330 -60
304 -213 591 -429 805 -194 194 -444 343 -710 426 -78 24 -218 56 -281 65 -27
3 -58 8 -69 11 -35 8 -368 10 -420 3z"/>
<path d="M1017 5800 c-59 -83 -110 -156 -113 -164 -3 -9 66 -64 203 -162 114
-81 213 -152 218 -157 50 -41 162 -114 169 -110 4 3 19 29 31 57 25 57 128
230 153 259 14 15 14 19 1 31 -15 14 -548 396 -552 396 -1 0 -51 -68 -110
-150z"/>
<path d="M5645 5789 c-121 -88 -244 -176 -273 -195 -28 -20 -54 -40 -57 -44
-3 -5 19 -46 49 -92 30 -46 73 -121 97 -168 23 -47 44 -87 45 -88 2 -3 521
365 534 378 3 3 17 13 33 23 15 10 27 21 27 26 0 10 -219 315 -228 318 -4 1
-106 -70 -227 -158z"/>
<path d="M584 4319 c-1 -176 1 -199 15 -200 21 -1 681 -1 702 0 14 1 15 26 15
199 l-1 197 -365 1 -366 1 0 -198z"/>
<path d="M5689 4516 c-1 0 -3 -91 -4 -201 l-2 -200 353 1 c193 1 359 4 367 7
12 4 14 38 13 199 l-1 193 -362 1 c-200 1 -364 1 -364 0z"/>
<path d="M1265 3303 c-126 -57 -278 -125 -337 -151 -59 -26 -108 -50 -108 -54
0 -10 150 -341 159 -351 8 -8 39 5 271 110 47 22 160 73 251 113 l165 75 -68
145 c-38 80 -76 161 -86 181 l-17 36 -230 -104z"/>
<path d="M5462 3319 c-14 -35 -53 -117 -84 -182 -57 -116 -58 -118 -35 -126
12 -5 60 -25 107 -44 372 -152 564 -227 572 -225 10 4 148 333 148 354 0 6
-87 46 -192 89 -106 42 -206 83 -223 91 -16 7 -77 32 -135 55 -58 22 -111 43
-118 46 -8 4 -22 -17 -40 -58z"/>
<path d="M2861 1444 c-114 -49 -119 -203 -8 -261 29 -15 94 -16 647 -16 674 0
651 -2 699 59 39 50 35 139 -8 186 -45 48 -51 48 -693 48 -508 -1 -608 -3
-637 -16z"/>
<path d="M2871 868 c-43 -12 -88 -69 -96 -122 -9 -54 20 -112 68 -142 31 -18
60 -19 647 -20 356 0 626 3 642 8 46 16 86 66 94 116 8 56 -11 100 -62 138
l-37 29 -613 0 c-337 0 -626 -3 -643 -7z"/>
<path d="M3046 158 c132 -87 216 -136 249 -145 66 -18 372 -17 424 2 20 7 126
71 236 144 l200 131 -655 0 -654 0 200 -132z"/>
</g>
</svg>
